<svg width="280" height="237" viewBox="0 0 280 237" fill="none" xmlns="http://www.w3.org/2000/svg">
<path d="M170.921 127.239C160.133 128.119 157.194 136.161 157.072 140.072C139.288 121.299 127.796 135.183 124.274 144.471C117.86 144.471 116.742 150.582 116.985 153.638C112.247 155.471 83.4565 158.037 107.874 163.904C139.109 171.408 174.565 168.304 203.355 168.67C232.145 169.037 235.06 159.504 233.603 155.104C232.145 150.704 216.11 158.037 217.203 148.138C218.078 140.218 202.262 142.394 194.244 144.471C195.58 143.005 197.451 139.558 194.244 137.505C191.037 135.452 186.591 138.361 184.769 140.072C184.647 135.428 181.708 126.359 170.921 127.239Z" fill="#ECF2FF"/>
<path d="M64.0565 6.8808C54.5584 7.65301 51.9699 14.7101 51.8629 18.1422C36.2037 1.66845 26.0855 13.8521 22.9837 22.0032C17.3362 22.0032 16.352 27.3657 16.5659 30.047C12.3944 31.6558 -12.9559 33.908 8.54357 39.0561C36.0462 45.6416 67.2653 42.9171 92.6151 43.2389C117.965 43.5606 120.532 35.195 119.248 31.334C117.965 27.473 103.846 33.908 104.809 25.2207C105.579 18.2708 91.6524 20.1799 84.593 22.0032C85.7696 20.7162 87.4168 17.6917 84.593 15.8898C81.7692 14.088 77.8544 16.6406 76.25 18.1422C76.1431 14.0666 73.5546 6.1086 64.0565 6.8808Z" fill="#ECF2FF"/>
<path d="M247.123 87.0928C241.492 87.5418 239.957 91.6448 239.894 93.6401C230.61 84.0624 224.611 91.1459 222.772 95.8849C219.424 95.8849 218.841 99.0027 218.968 100.562C216.494 101.497 201.465 102.806 214.211 105.799C230.517 109.628 249.025 108.044 264.054 108.231C279.083 108.418 280.604 103.555 279.844 101.31C279.083 99.065 270.712 102.806 271.283 97.7556C271.739 93.7149 263.483 94.8249 259.298 95.8849C259.995 95.1366 260.972 93.3782 259.298 92.3306C257.624 91.283 255.303 92.7671 254.352 93.6401C254.288 91.2706 252.754 86.6439 247.123 87.0928Z" fill="#ECF2FF"/>
<path d="M253.537 49.9328C253.537 77.51 231.178 99.8657 203.598 99.8657C176.017 99.8657 153.659 77.51 153.659 49.9328C153.659 22.3557 176.017 0 203.598 0C231.178 0 253.537 22.3557 253.537 49.9328Z" fill="#FFA502"/>
<path fill-rule="evenodd" clip-rule="evenodd" d="M93.3921 51.7079C92.3905 52.976 91.8892 54.7623 91.7619 56.0351L89.2136 55.7803C89.3709 54.2079 89.9793 51.8972 91.3822 50.1209C92.097 49.216 93.0417 48.4214 94.2601 47.9696C95.4862 47.5148 96.898 47.4414 98.4813 47.8372C101.659 48.6316 103.565 50.7211 104.628 52.931C105.673 55.1039 105.932 57.4374 105.852 58.9624L103.294 58.8279C103.356 57.65 103.146 55.7584 102.32 54.0405C101.512 52.3596 100.145 50.8926 97.8601 50.3214C96.7117 50.0343 95.8328 50.1174 95.1507 50.3704C94.4608 50.6263 93.8796 51.0907 93.3921 51.7079Z" fill="#A71814"/>
<path d="M76.8293 54.6274C80.9269 51.5546 94.7562 54.2006 101.159 55.9077C113.451 55.9077 114.533 63.8742 113.537 67.8574C105.996 89.623 89.122 132.813 81.9512 131.447C72.9878 129.74 61.0367 123.338 59.3293 114.803C57.622 106.267 71.7074 58.4684 76.8293 54.6274Z" fill="#D13734"/>
<path d="M76.1498 60.6022L78.6224 61.2695L69.0577 96.7044L66.5852 96.0372L76.1498 60.6022Z" fill="#A71814"/>
<path d="M57.8739 102.059C58.841 101.297 64.7653 104.366 67.6065 105.995L65.8308 115.983C62.9379 115.499 56.9996 113.688 56.3888 110.311C55.6253 106.091 56.6651 103.011 57.8739 102.059Z" fill="#A71814"/>
<path d="M70.7166 112.059C69.896 114.766 67.5849 116.462 65.5546 115.846C63.5242 115.231 62.5435 112.538 63.364 109.831C64.1846 107.124 66.4957 105.429 68.5261 106.044C70.5564 106.659 71.5372 109.353 70.7166 112.059Z" fill="#781A18"/>
<path d="M62.9042 84.7888C64.9039 84.1122 66.6536 84.7888 67.9034 85.2117C70.1134 85.9594 73.6526 86.7342 76.6522 87.7491C80.4016 89.0178 72.9027 105.088 70.403 106.357C67.9034 107.625 64.154 105.088 59.7796 102.551C55.4052 100.013 60.4045 85.6346 62.9042 84.7888Z" fill="#C22420"/>
<path d="M43.1098 216.803C34.9146 218.51 29.7358 230.602 28.1707 236.434H259.939C260.508 236.434 261.305 235.495 259.939 231.74C258.232 227.045 242.439 226.618 242.866 221.07C243.293 215.522 236.89 212.535 236.037 211.681C235.183 210.828 229.207 206.133 228.354 202.292C227.5 198.451 210.427 192.903 207.012 192.903C203.598 192.903 201.463 187.782 193.78 178.819C186.098 169.857 169.024 169.004 165.61 166.87C162.195 164.736 163.902 163.456 157.927 160.895C151.951 158.334 140 161.322 132.317 160.895C124.634 160.468 127.195 163.455 124.207 166.87C121.22 170.284 120.366 172.418 113.963 174.978C108.841 177.027 108.415 185.221 108.841 189.062C106.85 188.635 102.098 188.038 99.0244 189.062C95.1829 190.342 96.0366 192.05 88.7805 190.769C81.5244 189.489 79.3902 194.61 75.9756 196.744C72.561 198.878 69.5732 201.439 66.1585 199.732C62.7439 198.024 59.3293 202.719 56.7683 206.133C54.2073 209.547 53.3537 214.669 43.1098 216.803Z" fill="#83A9F4"/>
<path d="M107.822 188.872C108 189.084 108.197 189.29 108.415 189.489C109.303 190.303 110.102 191.028 110.829 191.687C114.29 194.827 116.115 196.483 118.232 199.305C120.069 201.754 120.808 202.007 122.498 202.585C123.163 202.812 123.976 203.09 125.061 203.572C125.582 203.804 126.017 203.989 126.391 204.147C127.134 204.463 127.637 204.676 128.101 204.955C129.07 205.538 129.867 206.408 132.33 209.096L132.744 209.547C135.585 212.646 135.456 212.776 133.588 214.665C132.369 215.897 130.408 217.879 128.049 221.924C127.511 222.845 127.063 223.611 126.692 224.247L126.691 224.248C125.27 226.678 124.963 227.205 125.004 227.233C125.015 227.241 125.053 227.211 125.102 227.173C125.342 226.984 125.84 226.591 124.634 229.606C123.218 233.145 122.585 232.901 120.931 232.264C119.594 231.749 117.589 230.976 113.963 231.74C105.854 233.447 103.719 233.447 95.6096 231.74C92.7245 231.132 91.1359 230.525 89.7484 229.994C87.2357 229.034 85.3823 228.325 77.6828 228.325C68.1218 228.325 56.0568 231.74 51.2194 233.447C47.6625 233.304 40.0365 233.105 37.9877 233.447C36.283 233.731 32.2932 232.853 29.6079 232.14C28.9766 233.742 28.4958 235.223 28.1708 236.434H136.129C138.614 234.32 141.15 229.807 139.573 221.924C138.53 216.707 137.699 212.978 137.109 210.333L137.109 210.33C136.252 206.486 135.906 204.931 136.158 204.426C136.435 203.872 132.579 200.623 127.737 196.543C125.118 194.336 122.21 191.886 119.512 189.489C114.025 184.612 114.253 178.012 115.276 174.425C114.866 174.608 114.429 174.792 113.963 174.978C108.841 177.027 108.415 185.221 108.841 189.062C108.555 189 108.21 188.935 107.822 188.872Z" fill="#9BBCFE"/>
<path d="M203.724 191.196H203.597C199.329 195.606 190.536 205.792 189.512 211.254C188.4 217.184 186.966 218.286 183.812 220.71C183.335 221.077 182.817 221.475 182.256 221.924C181.423 222.59 180.736 223.11 180.167 223.541C177.821 225.317 177.478 225.578 177.134 228.325C176.984 229.525 176.782 230.197 176.637 230.676C176.371 231.561 176.303 231.785 177.134 233.447C177.718 234.614 176.943 235.652 175.853 236.434H242.11L260.472 236.093C260.655 235.791 260.759 235.26 260.647 234.393C258.275 233.866 254.95 233.447 250.549 233.447C248.426 233.447 246.896 233.478 245.739 233.502C243.863 233.54 242.966 233.558 242.105 233.391C241.318 233.237 240.561 232.929 239.111 232.337C238.016 231.891 236.526 231.283 234.329 230.459C230.78 229.128 228.819 227.849 227.399 226.922C224.721 225.175 223.967 224.683 218.11 227.472C213.396 229.716 211.397 231.724 210.251 232.876C209.218 233.914 208.878 234.256 207.866 233.447C206.953 232.717 206.353 232.611 205.698 232.496C204.82 232.341 203.845 232.169 201.89 230.459C200.55 229.287 199.277 229.035 198.352 228.852C196.919 228.568 196.325 228.45 197.622 225.338C198.722 222.699 199.368 221.76 199.97 220.885C200.536 220.063 201.063 219.298 201.89 217.229C202.251 216.327 202.535 215.73 202.744 215.293C202.986 214.784 203.126 214.492 203.161 214.188C203.209 213.779 203.07 213.348 202.744 212.337C202.535 211.691 202.251 210.81 201.89 209.547C200.589 204.993 200.775 204.654 202.071 202.294C202.476 201.557 202.988 200.624 203.597 199.305C204.898 196.486 206.039 194.322 206.843 192.899C205.758 192.844 204.794 192.262 203.724 191.196Z" fill="#9BBCFE"/>
<path d="M147.683 32.008C145.016 34.0077 148.11 34.5685 147.683 36.7023L148.537 48.6522L134.878 76.3926L119.512 72.5516L111.402 80.6604C119.228 83.3633 135.988 88.257 140.427 86.2085C144.866 84.16 151.667 60.8864 154.512 49.5057C158.78 46.5183 157.927 35.8491 156.22 32.8617C154.512 29.8743 151.098 29.4476 147.683 32.008Z" fill="#FA7D5D"/>
<path d="M101.926 66.6663C98.815 75.8978 122.933 87.1376 123.353 87.0621C122.413 83.7623 125.615 77.0972 127.621 72.9785C119.512 66.6664 105.036 57.4348 101.926 66.6663Z" fill="#D6E7F6"/>
<path d="M108.841 64.0164C107.817 61.285 108.699 58.3261 109.268 57.188C106.565 55.3386 101.159 52.4081 101.159 55.4809C101.159 59.3219 98.1704 59.7487 97.3167 61.4558C96.463 63.1629 105.426 67.0039 107.134 67.4306C108.841 67.8574 110.122 67.4306 108.841 64.0164Z" fill="#FA7D5D"/>
<path d="M108.415 62.7362C109.268 67.0039 100.162 63.4475 97.3169 61.4559C81.5244 56.7613 82.3779 96.0248 83.2315 116.51L116.524 101.146C115.528 91.0457 113.741 67.8194 113.11 65.2968C112.683 63.5897 109.126 63.0207 108.415 62.7362Z" fill="#C4DFF6"/>
<path d="M115.223 87.5788L97.7439 80.6608L86.8319 68.1339C86.6037 68.6832 86.3879 69.2585 86.1837 69.8576C86.57 75.8695 90.2734 86.4606 103.292 94.7444L104.573 91.757C106.423 93.6063 110.976 96.8783 114.39 95.1712C114.952 94.8902 115.437 94.5669 115.854 94.2164C115.653 92.1103 115.44 89.8583 115.223 87.5788Z" fill="#ABD1F1"/>
<path d="M97.1302 61.4022C102.163 67.3624 109.337 80.1176 104.573 92.1837C100.032 103.687 89.3385 106.423 82.9067 106.399C82.8735 104.728 82.8516 103.014 82.8461 101.276C88.1112 101.32 96.2266 99.5919 98.5975 92.1837C101.116 84.3138 95.3618 69.7923 91.4379 62.0001C93.0357 61.0462 94.9175 60.7879 97.1302 61.4022Z" fill="#A71814"/>
<path d="M108.871 62.8765L116.098 97.3051L116.147 97.133C115.875 94.1473 115.573 90.6541 115.264 87.0928C114.414 77.2711 113.519 66.9324 113.11 65.2968C112.766 63.9227 110.395 63.286 109.111 62.9415C109.026 62.9186 108.946 62.897 108.871 62.8765Z" fill="#A71814"/>
<path d="M138.719 35.8491L161.341 29.8743L161.342 46.0919L141.23 46.9008L138.719 35.8491Z" fill="#232373"/>
<path d="M122.927 43.531L143.415 32.8618L145.976 48.6524L124.284 50.3149L122.927 43.531Z" fill="#30307C"/>
<path d="M146.023 40.4653C145.88 39.2954 146.713 38.2314 147.883 38.0887L156.357 37.0552C157.527 36.9125 158.591 37.7451 158.734 38.915C158.876 40.0848 158.044 41.1488 156.874 41.2915L148.4 42.3251C147.23 42.4678 146.166 41.6351 146.023 40.4653Z" fill="#2E2E8C"/>
<path d="M150.244 40.5438C150.244 45.0221 147.951 48.6525 145.122 48.6525C142.293 48.6525 140 45.0221 140 40.5438C140 36.0654 142.293 32.435 145.122 32.435C147.951 32.435 150.244 36.0654 150.244 40.5438Z" fill="#1C1C52"/>
<path d="M166.463 37.9831C166.463 42.4614 164.17 46.0918 161.341 46.0918C158.513 46.0918 156.22 42.4614 156.22 37.9831C156.22 33.5047 158.513 29.8743 161.341 29.8743C164.17 29.8743 166.463 33.5047 166.463 37.9831Z" fill="#1C1C52"/>
<path d="M149.39 40.5437C149.39 43.6079 147.861 46.0918 145.976 46.0918C144.09 46.0918 142.561 43.6079 142.561 40.5437C142.561 37.4796 144.09 34.9957 145.976 34.9957C147.861 34.9957 149.39 37.4796 149.39 40.5437Z" fill="#6363D1"/>
<path d="M165.61 37.9831C165.61 41.0472 164.081 43.5312 162.195 43.5312C160.309 43.5312 158.78 41.0472 158.78 37.9831C158.78 34.919 160.309 32.435 162.195 32.435C164.081 32.435 165.61 34.919 165.61 37.9831Z" fill="#6363D1"/>
<path d="M164.249 33.5501L161.244 43.3132C160.353 42.8941 159.611 41.9003 159.182 40.5948L163.152 32.6556C163.553 32.8455 163.923 33.1516 164.249 33.5501Z" fill="#8383FF"/>
<path d="M147.904 35.9643L145.106 45.9104C144.532 45.6656 144.018 45.1844 143.604 44.5346L146.541 35.0713C147.04 35.2064 147.503 35.5176 147.904 35.9643Z" fill="#8383FF"/>
<path d="M110.976 82.3677C109.269 81.0874 105.683 78.4414 105 78.0999C101.017 78.5267 94.2442 80.746 99.0247 86.2087C105 93.0371 112.256 95.171 117.805 92.1836C123.354 89.1961 131.464 57.6147 133.171 55.9076C134.878 54.2005 136.586 50.7863 134.451 47.7988C132.317 44.8114 136.159 38.4099 135.732 36.7028C135.305 34.9957 132.744 33.7153 128.902 37.9831C125.829 41.3973 126.769 49.2214 128.049 52.9201L110.976 82.3677Z" fill="#FF8C6E"/>
<path d="M87.0728 64.4433C82.3776 72.9789 102.439 93.0373 102.865 93.0373C102.524 89.6232 107.845 81.3721 110.549 77.6734C104.146 68.7111 91.7679 55.9078 87.0728 64.4433Z" fill="#D6E7F6"/>
<path d="M105.263 86.0197C103.292 84.7131 101.311 82.9406 99.4098 80.956C96.9648 78.4038 94.6317 75.4804 92.5975 72.6971C90.282 69.5289 88.346 66.5315 87.0667 64.4545C87.0687 64.4508 87.0708 64.447 87.0728 64.4433C87.2315 64.1549 87.3989 63.8908 87.5747 63.6501C88.8303 65.7053 90.8436 68.8507 93.2867 72.1935C95.3074 74.9583 97.6161 77.8497 100.026 80.3655C101.888 82.3084 103.798 84.0152 105.673 85.2675C105.533 85.5185 105.396 85.7695 105.263 86.0197Z" fill="#9DC9EE"/>
<path d="M106.819 83.2935C105.047 82.2423 103.219 80.7231 101.434 78.9861C99.1625 76.7749 96.9358 74.1857 94.9557 71.6974C92.9747 69.2082 91.2357 66.8139 89.9398 64.9905C89.538 64.4252 89.1767 63.9117 88.8651 63.4688C88.6821 63.2088 88.5162 62.9731 88.3693 62.7654C88.5892 62.5696 88.8183 62.4009 89.056 62.2581C89.2084 62.4734 89.3788 62.7155 89.5665 62.9822C89.8766 63.4229 90.234 63.9309 90.6357 64.4961C91.9275 66.3137 93.6564 68.6939 95.6237 71.166C97.5917 73.639 99.7934 76.1978 102.03 78.3744C103.801 80.098 105.578 81.5663 107.265 82.5654C107.116 82.8058 106.967 83.0488 106.819 83.2935Z" fill="#9DC9EE"/>
<path d="M81.0976 210.828L98.5976 145.104L84.0854 136.142L69.5732 211.681L72.9878 215.522L81.0976 210.828Z" fill="#FF8C6E"/>
<path d="M78.5366 155.366L83.5797 116.083L105.854 120.675L98.7092 160.468C96.0195 157.203 84.1401 155.706 78.5366 155.366Z" fill="#2034A6"/>
<path d="M85.4865 202.174C86.754 202.581 86.2075 204.549 85.7759 205.483C94.1284 205.405 98.0979 208.311 100.803 210.454C103.264 212.404 102.389 216.015 101.142 218.524C99.895 221.034 70.5462 213.562 69.7301 213.454C68.914 213.345 68.7377 212.727 67.9522 209.056C67.3238 206.119 68.3927 203.566 69.0057 202.657L77.567 204.688C77.5561 204.191 77.6719 203.037 78.2221 202.397C78.9098 201.597 83.9022 201.666 85.4865 202.174Z" fill="#1B2E9C"/>
<path d="M77.6159 203.971L77.785 203.897L80.323 209.692L88.6004 211.069C88.7786 210.115 89.0762 208.873 89.4715 207.824C89.6989 207.22 89.9693 206.651 90.2862 206.236C90.3989 206.089 90.531 205.944 90.6818 205.824C90.9727 205.871 91.2563 205.921 91.533 205.976L91.4689 206.365C91.387 206.354 91.2209 206.392 90.9666 206.725C90.7254 207.041 90.4898 207.519 90.2728 208.095C89.8416 209.239 89.5262 210.653 89.3691 211.608L89.2986 212.035L79.7129 210.441L77.1496 204.589L77.567 204.688C77.5632 204.513 77.575 204.257 77.6159 203.971Z" fill="white"/>
<path d="M68.1911 210.161L93.689 215.589L94.097 213.111L94.1013 213.094C94.7645 210.467 96.051 209.186 97.4884 208.746C97.7343 208.671 97.9807 208.621 98.2245 208.594C98.7033 208.894 99.1453 209.199 99.5577 209.5C98.9835 209.372 98.3432 209.353 97.7251 209.542C96.6717 209.865 95.551 210.835 94.9352 213.258L94.3855 216.597L68.3956 211.063C68.332 210.794 68.2644 210.494 68.1911 210.161Z" fill="white"/>
<path d="M89.363 205.648L89.3406 205.785C89.3655 205.788 89.3815 205.785 89.3856 205.784C89.3863 205.784 89.3866 205.784 89.3866 205.784" fill="white"/>
<path d="M88.3486 205.558C88.6954 205.583 89.0335 205.613 89.363 205.648L88.3486 205.558Z" fill="white"/>
<path d="M88.3486 205.558C88.1783 205.73 87.9948 205.934 87.7986 206.162C87.5345 206.47 87.2348 206.835 86.8996 207.244L86.7409 207.437C86.3393 207.927 85.886 208.476 85.3736 209.072L86.0225 209.6C86.5416 208.996 86.9999 208.44 87.4025 207.95L87.5619 207.755C87.8981 207.345 88.1905 206.989 88.4474 206.69C88.7468 206.342 88.9815 206.091 89.1657 205.934C89.2576 205.856 89.322 205.814 89.3624 205.794C89.3755 205.788 89.383 205.785 89.3856 205.784" fill="white"/>
<path d="M86.7995 205.488C86.63 205.528 86.4081 205.616 86.1357 205.762C85.7721 205.955 85.3624 206.227 84.9363 206.544C84.0851 207.176 83.2036 207.96 82.5513 208.58L81.9635 207.988C82.6292 207.356 83.5392 206.545 84.4299 205.884C84.8749 205.553 85.3237 205.253 85.741 205.031C85.8292 204.984 85.9182 204.939 86.0075 204.897C85.934 205.116 85.8531 205.316 85.7759 205.483C86.1247 205.479 86.4658 205.481 86.7995 205.488Z" fill="white"/>
<path d="M142.988 98.6466C137.183 96.5981 120.366 101.492 112.683 104.195L117.378 121.266L136.159 114.437L125.488 163.455L132.317 166.931L136.585 159.676C140 147.015 147.427 120.668 149.817 116.571C152.805 111.45 150.244 101.207 142.988 98.6466Z" fill="#FF8C6E"/>
<path d="M95.6098 131.874C87.4146 131.532 84.2276 121.489 83.6585 116.51C95.9512 107.292 114.248 101.431 125.915 98.5853C121.817 103.365 127.622 114.092 128.476 119.071C119.939 124.05 103.805 132.215 95.6098 131.874Z" fill="#213ACF"/>
<path d="M101.858 106.447C107.34 104.129 112.898 102.233 117.927 100.744C118.264 101.286 118.513 101.982 118.659 102.853C120.024 111.047 109.837 115.088 104.573 116.083L101.585 106.694C101.674 106.613 101.765 106.53 101.858 106.447Z" fill="#2034A6"/>
<path d="M142.539 154.391C143.807 154.797 143.26 156.766 142.829 157.699C151.181 157.621 155.151 160.527 157.855 162.67C160.317 164.621 159.442 168.231 158.195 170.741C156.948 173.25 127.599 165.779 126.783 165.67C125.967 165.562 125.79 164.944 125.005 161.272C124.376 158.335 125.445 155.783 126.058 154.873L134.62 156.904C134.609 156.407 134.725 155.254 135.275 154.613C135.962 153.813 140.955 153.883 142.539 154.391Z" fill="#1B2E9C"/>
<path d="M134.669 156.188L134.838 156.113L137.376 161.908L145.653 163.285C145.831 162.331 146.129 161.089 146.524 160.04C146.752 159.436 147.022 158.867 147.339 158.452C147.452 158.305 147.584 158.16 147.734 158.04C148.025 158.087 148.309 158.138 148.586 158.192L148.522 158.581C148.44 158.57 148.274 158.608 148.019 158.941C147.778 159.257 147.542 159.735 147.325 160.311C146.894 161.455 146.579 162.87 146.422 163.824L146.351 164.252L136.766 162.657L134.202 156.805L134.62 156.904C134.616 156.729 134.628 156.474 134.669 156.188Z" fill="white"/>
<path d="M125.244 162.377L150.742 167.805L151.15 165.327L151.154 165.31C151.817 162.683 153.104 161.402 154.541 160.962C154.787 160.887 155.033 160.837 155.277 160.81C155.756 161.11 156.198 161.415 156.61 161.716C156.036 161.588 155.396 161.569 154.778 161.758C153.724 162.081 152.604 163.051 151.988 165.474L151.438 168.813L125.448 163.28C125.385 163.01 125.317 162.71 125.244 162.377Z" fill="white"/>
<path d="M146.416 157.865L146.393 158.001C146.418 158.004 146.434 158.001 146.438 158C146.439 158 146.439 158 146.439 158" fill="white"/>
<path d="M145.401 157.774C145.748 157.799 146.086 157.829 146.416 157.865L145.401 157.774Z" fill="white"/>
<path d="M145.401 157.774C145.231 157.946 145.047 158.15 144.851 158.379C144.587 158.686 144.287 159.051 143.952 159.46L143.794 159.654C143.392 160.143 142.939 160.692 142.426 161.288L143.075 161.816C143.594 161.212 144.053 160.656 144.455 160.166L144.615 159.972C144.951 159.562 145.243 159.205 145.5 158.906C145.799 158.558 146.034 158.307 146.218 158.15C146.31 158.072 146.375 158.03 146.415 158.01C146.428 158.004 146.436 158.001 146.438 158" fill="white"/>
<path d="M143.852 157.704C143.683 157.745 143.461 157.833 143.188 157.978C142.825 158.172 142.415 158.443 141.989 158.76C141.138 159.392 140.256 160.176 139.604 160.796L139.016 160.204C139.682 159.572 140.592 158.762 141.483 158.1C141.928 157.769 142.376 157.469 142.794 157.247C142.882 157.2 142.971 157.155 143.06 157.114C142.987 157.332 142.906 157.532 142.829 157.699C143.177 157.696 143.518 157.698 143.852 157.704Z" fill="white"/>
<path d="M117.805 56.7613C120.878 55.3956 122.215 37.2718 121.22 28.5941L93.9027 31.1547C93.4759 36.7028 93.6466 48.9086 97.7442 53.3471C102.866 58.8952 113.963 58.4684 117.805 56.7613Z" fill="#FF8C6E"/>
<path d="M121.359 41.4436C121.34 41.4433 121.32 41.4431 121.3 41.4431C119.184 41.4431 117.469 43.1321 117.469 45.2155C117.469 47.0619 118.816 48.5985 120.596 48.9242C120.945 46.6435 121.202 44.0607 121.359 41.4436Z" fill="#FF6344"/>
<path d="M105.973 48.9879C108.089 48.9879 109.805 47.2989 109.805 45.2155C109.805 43.1321 108.089 41.4431 105.973 41.4431C103.857 41.4431 102.141 43.1321 102.141 45.2155C102.141 47.2989 103.857 48.9879 105.973 48.9879Z" fill="#FF6344"/>
<path fill-rule="evenodd" clip-rule="evenodd" d="M111.164 48.6886C111.333 48.6043 111.538 48.6727 111.623 48.8413C112.227 50.0508 112.886 50.3736 113.377 50.4142C113.901 50.4575 114.353 50.1921 114.537 50.0233C114.675 49.8955 114.891 49.9043 115.019 50.043C115.147 50.1816 115.138 50.3976 114.999 50.5254C114.72 50.7833 114.087 51.1581 113.321 51.0947C112.522 51.0287 111.687 50.4979 111.012 49.1467C110.927 48.9781 110.996 48.773 111.164 48.6886Z" fill="black"/>
<path fill-rule="evenodd" clip-rule="evenodd" d="M116.159 42.8409C115.871 42.6014 115.538 42.4122 115.239 42.2814L114.943 42.9385C115.192 43.0474 115.462 43.2028 115.687 43.3902C115.916 43.5802 116.074 43.783 116.141 43.9814C116.202 44.1628 116.197 44.367 116.044 44.612C115.881 44.872 115.543 45.187 114.914 45.5313L115.268 46.1599C115.953 45.7852 116.41 45.3961 116.665 44.9895C116.929 44.5679 116.965 44.143 116.835 43.7551C116.71 43.3843 116.444 43.0778 116.159 42.8409Z" fill="#E4542F"/>
<path d="M102.439 15.364C95.2684 16.3882 90.9143 23.3305 90.0607 26.4602C84.5973 42.1655 95.6101 53.3471 101.159 55.9077C96.8906 43.5312 99.4513 40.5438 100.732 34.9957C101.249 32.7563 104.573 30.3012 110.548 32.0083C121.475 33.3739 123.353 29.4476 125.915 25.1798C124.207 25.1798 122.358 25.0376 121.646 24.3263C127.11 21.2535 128.76 18.2092 128.903 17.0711C124.464 17.7539 118.232 16.7866 115.671 16.2175C117.72 15.1933 119.085 12.092 119.512 10.6694C116.524 14.5104 111.403 14.0836 102.439 15.364Z" fill="#32327A"/>
<path d="M94.7559 37.5562C96.4632 35.8491 98.7398 37.8409 99.4512 39.2634C101.159 42.8199 103.122 50.6157 99.0243 48.2258C93.9024 45.2383 92.6218 39.6901 94.7559 37.5562Z" fill="#FF8C6E"/>
<path fill-rule="evenodd" clip-rule="evenodd" d="M117.956 41.6012C117.621 41.7083 117.399 41.922 117.306 42.0609L116.596 41.5874C116.788 41.2996 117.163 40.9584 117.696 40.7882C118.243 40.6132 118.928 40.6279 119.703 41.0157L119.321 41.7791C118.731 41.484 118.277 41.4987 117.956 41.6012Z" fill="black"/>
<path d="M110.976 41.3974C110.976 42.5759 110.402 43.5313 109.695 43.5313C108.988 43.5313 108.415 42.5759 108.415 41.3974C108.415 40.2189 108.988 39.2635 109.695 39.2635C110.402 39.2635 110.976 40.2189 110.976 41.3974Z" fill="#090F39"/>
<path fill-rule="evenodd" clip-rule="evenodd" d="M109.331 36.7035C108.635 36.719 107.961 36.9994 107.341 37.3434C107.135 37.4579 106.876 37.3836 106.761 37.1776C106.647 36.9716 106.721 36.7117 106.927 36.5973C107.588 36.23 108.408 35.8702 109.312 35.8501C110.238 35.8295 111.201 36.1657 112.131 37.0953C112.298 37.2619 112.298 37.5322 112.131 37.6988C111.964 37.8655 111.694 37.8655 111.528 37.6988C110.75 36.9213 110.006 36.6885 109.331 36.7035Z" fill="black"/>
<path fill-rule="evenodd" clip-rule="evenodd" d="M117.273 39.0137C116.81 39.1823 116.445 39.5975 116.137 40.061C116.034 40.2152 115.836 40.2021 115.695 40.0317C115.554 39.8612 115.523 39.598 115.625 39.4438C115.954 38.9488 116.393 38.426 116.993 38.2073C117.609 37.9833 118.361 38.0898 119.276 38.7675C119.44 38.8891 119.524 39.1457 119.464 39.3409C119.404 39.536 119.223 39.5957 119.059 39.4742C118.294 38.9073 117.722 38.8503 117.273 39.0137Z" fill="black"/>
</svg>
