<svg width="428" height="417" viewBox="0 0 428 417" fill="none" xmlns="http://www.w3.org/2000/svg">
<path d="M-21 181H445V489H-21V181Z" fill="#C7BCA1"/>
<path d="M304.753 145.68C292.581 146.671 289.263 155.723 289.126 160.125C269.059 138.995 256.092 154.622 252.117 165.078C244.879 165.078 243.618 171.956 243.892 175.395C238.546 177.459 206.059 180.348 233.611 186.951C268.857 195.398 308.865 191.904 341.351 192.316C373.838 192.729 377.127 181.999 375.483 177.046C373.838 172.094 355.744 180.348 356.978 169.205C357.965 160.29 340.118 162.739 331.071 165.078C332.579 163.427 334.69 159.547 331.071 157.236C327.452 154.925 322.435 158.199 320.379 160.125C320.242 154.898 316.925 144.69 304.753 145.68Z" fill="#ECF2FF"/>
<path d="M282.254 318.126C282.254 329.085 248.178 337.969 206.143 337.969C164.107 337.969 130.031 329.085 130.031 318.126C130.031 307.167 164.107 298.283 206.143 298.283C248.178 298.283 282.254 307.167 282.254 318.126Z" fill="#ECF2FF"/>
<path d="M132.257 200.41C142.256 201.216 144.981 208.584 145.093 212.168C161.577 194.968 172.229 207.689 175.494 216.199C181.439 216.199 182.475 221.797 182.25 224.597C186.641 226.276 213.327 228.628 190.695 234.003C161.743 240.878 128.879 238.034 102.194 238.37C75.5088 238.706 72.8066 229.972 74.1577 225.94C75.5089 221.909 90.3716 228.628 89.3582 219.558C88.5475 212.302 103.207 214.295 110.639 216.199C109.4 214.855 107.666 211.697 110.639 209.816C113.611 207.935 117.732 210.6 119.421 212.168C119.534 207.913 122.259 199.604 132.257 200.41Z" fill="#ECF2FF"/>
<path d="M145.231 0.076554C131.407 1.20526 127.64 11.5204 127.484 16.5369C104.693 -7.54216 89.9661 10.2663 85.4517 22.1804C77.232 22.1804 75.7996 30.0186 76.1108 33.9377C70.0395 36.2892 33.1433 39.5813 64.4348 47.106C104.463 56.7318 149.901 52.7495 186.797 53.2198C223.692 53.6901 227.428 41.4625 225.56 35.8189C223.692 30.1754 203.143 39.5813 204.544 26.8833C205.665 16.7249 185.396 19.5153 175.121 22.1804C176.833 20.2992 179.231 15.8785 175.121 13.2447C171.011 10.611 165.313 14.3421 162.978 16.5369C162.823 10.5798 159.055 -1.05216 145.231 0.076554Z" fill="#ECF2FF"/>
<path d="M248.169 90.0048C248.169 132.426 213.806 166.816 171.417 166.816C129.029 166.816 94.6658 132.426 94.6658 90.0048C94.6658 47.5832 129.029 13.1937 171.417 13.1937C213.806 13.1937 248.169 47.5832 248.169 90.0048Z" fill="#FFA502"/>
<path d="M194.995 299.06L203.588 215.378L183.548 214.483L181.834 296.091C181.086 296.018 179.306 297.684 178.17 304.937C176.751 314.003 192.771 308.781 198.764 315.638C207.364 316.948 212.877 315.218 202.634 309.546C194.44 305.009 196.793 302.482 194.995 299.06Z" fill="#FF8C6E"/>
<path d="M171.734 220.463L176.715 142.243L187.113 134.056L213.196 164.491L209.329 220.409C198.958 225.05 179.944 222.378 171.734 220.463Z" fill="#2034A6"/>
<path d="M199.92 301.737C200.28 300.382 200.45 298.331 198.988 298C196.9 297.529 190.506 298.033 189.723 299.155C189.096 300.053 189.088 301.567 189.162 302.212L177.964 300.591C177.29 301.847 176.231 305.294 177.391 309.038C178.839 313.719 179.14 314.501 180.197 314.545C180.354 314.552 181.337 314.695 182.902 314.922C191.864 316.225 219.892 320.301 220.992 317.396C221.154 316.97 221.306 316.522 221.441 316.06C222.391 312.825 222.544 308.905 219.582 306.942C218.652 306.326 217.616 305.657 216.417 305.018C212.821 303.1 207.765 301.446 199.759 302.268C199.814 302.11 199.869 301.93 199.92 301.737Z" fill="#213ACF"/>
<path d="M189.138 301.274L189.345 301.158L193.292 308.391L204.047 309.195C204.16 307.934 204.39 306.283 204.769 304.872C204.987 304.06 205.264 303.287 205.619 302.71C205.746 302.505 205.897 302.301 206.075 302.127C206.453 302.153 206.822 302.186 207.183 302.224L207.148 302.737C207.042 302.732 206.834 302.801 206.549 303.264C206.279 303.704 206.035 304.354 205.827 305.128C205.414 306.668 205.181 308.545 205.096 309.804L205.057 310.369L192.603 309.438L188.616 302.133L189.162 302.212C189.136 301.985 189.12 301.651 189.138 301.274Z" fill="white"/>
<path d="M177.83 310.446L211.103 314.467L211.326 311.196L211.329 311.173C211.86 307.679 213.351 305.859 215.136 305.116C215.441 304.988 215.75 304.895 216.059 304.83C216.707 305.164 217.31 305.507 217.873 305.85C217.124 305.752 216.303 305.803 215.535 306.123C214.227 306.668 212.91 308.063 212.416 311.287L212.116 315.694L178.2 311.595C178.086 311.252 177.964 310.87 177.83 310.446Z" fill="white"/>
<path d="M204.367 302.056L204.355 302.236C204.388 302.237 204.408 302.231 204.413 302.23C204.414 302.229 204.414 302.229 204.414 302.229" fill="white"/>
<path d="M203.059 302.06C203.505 302.05 203.942 302.049 204.367 302.056L203.059 302.06Z" fill="white"/>
<path d="M203.059 302.06C202.862 302.303 202.652 302.59 202.428 302.911C202.128 303.341 201.789 303.852 201.409 304.424L201.23 304.694C200.775 305.379 200.262 306.147 199.678 306.983L200.572 307.592C201.163 306.745 201.682 305.968 202.138 305.282L202.318 305.01C202.699 304.437 203.03 303.938 203.322 303.519C203.663 303.03 203.933 302.677 204.15 302.451C204.258 302.338 204.335 302.276 204.384 302.245C204.4 302.235 204.41 302.231 204.413 302.23" fill="white"/>
<path d="M201.068 302.153C200.856 302.226 200.583 302.366 200.253 302.587C199.811 302.883 199.32 303.285 198.813 303.747C197.801 304.671 196.768 305.796 196.008 306.679L195.185 305.98C195.96 305.078 197.026 303.916 198.085 302.949C198.615 302.467 199.153 302.023 199.66 301.684C199.767 301.612 199.875 301.544 199.984 301.479C199.916 301.772 199.837 302.042 199.759 302.268C200.204 302.222 200.64 302.184 201.068 302.153Z" fill="white"/>
<path d="M253.798 220.016C253.217 210.164 247.741 208.541 246.644 207.45L236.756 195.441L215.414 192.777L232.493 228.301C224.72 247.67 215.479 293.37 210.845 295.709C210.852 297.69 209.206 296.248 210.87 302.811C212.791 306.005 243.726 313.605 243.726 313.605C243.726 313.605 246.367 317.975 248.102 313.59C249.838 309.205 245.898 308.671 245.898 308.671C240.409 303.215 226.198 306.604 222.353 301.69C232.484 278.664 254.263 227.897 253.798 220.016Z" fill="#FF8C6E"/>
<path d="M233.495 300.213C234.415 299.24 235.912 297.037 234.544 296.006C232.833 294.718 226.796 292.55 225.621 293.251C225.504 293.321 225.391 293.404 225.284 293.497C224.531 294.145 224.028 295.267 223.856 295.808L214.311 289.729C213.181 290.596 210.801 293.304 210.322 297.195C210.284 297.499 210.249 297.787 210.216 298.06C209.72 302.161 209.734 302.924 210.621 303.369C210.761 303.44 211.599 303.974 212.933 304.825C213.887 305.434 215.096 306.204 216.484 307.083C226.202 313.232 244.728 324.655 246.648 322.734C249.226 320.154 251.818 316.058 249.652 312.622C247.272 308.846 243.678 303.601 233.495 300.213Z" fill="#213ACF"/>
<path d="M224.218 294.943L224.455 294.922L225.086 303.139L234.563 308.292C235.183 307.188 236.071 305.778 236.995 304.647C237.527 303.996 238.096 303.406 238.657 303.025C238.857 302.89 239.078 302.766 239.312 302.681C239.646 302.86 239.969 303.041 240.282 303.224L240.04 303.678C239.945 303.63 239.727 303.607 239.277 303.912C238.85 304.202 238.362 304.695 237.854 305.316C236.846 306.549 235.864 308.165 235.269 309.279L235.002 309.778L224.028 303.81L223.39 295.511L223.856 295.808C223.925 295.591 224.048 295.279 224.218 294.943Z" fill="white"/>
<path d="M210.145 298.659L238.834 315.999L240.378 313.107L240.391 313.088C242.309 310.12 244.414 309.073 246.347 309.129C246.678 309.139 246.999 309.181 247.306 309.248C247.761 309.819 248.169 310.38 248.543 310.924C247.899 310.526 247.129 310.236 246.298 310.212C244.881 310.171 243.109 310.902 241.335 313.638L239.253 317.534L210.011 299.859C210.048 299.5 210.093 299.101 210.145 298.659Z" fill="white"/>
<path d="M237.784 301.914L237.699 302.073C237.728 302.088 237.749 302.091 237.754 302.091C237.755 302.091 237.756 302.091 237.756 302.091" fill="white"/>
<path d="M236.589 301.38C237 301.555 237.399 301.733 237.784 301.914L236.589 301.38Z" fill="white"/>
<path d="M236.589 301.38C236.31 301.52 236 301.696 235.665 301.897C235.214 302.166 234.695 302.493 234.115 302.858L233.84 303.031C233.145 303.468 232.362 303.957 231.487 304.48L232.052 305.402C232.938 304.873 233.731 304.377 234.427 303.939L234.703 303.766C235.286 303.4 235.792 303.081 236.231 302.819C236.742 302.513 237.133 302.302 237.423 302.185C237.568 302.126 237.664 302.101 237.722 302.094C237.74 302.091 237.751 302.091 237.754 302.091" fill="white"/>
<path d="M234.736 300.647C234.513 300.626 234.206 300.642 233.814 300.708C233.29 300.796 232.677 300.961 232.026 301.174C230.723 301.6 229.32 302.201 228.265 302.694L227.801 301.718C228.878 301.215 230.327 300.593 231.689 300.147C232.37 299.925 233.043 299.741 233.644 299.64C233.771 299.619 233.898 299.601 234.025 299.587C233.843 299.826 233.66 300.039 233.495 300.213C233.92 300.355 234.334 300.499 234.736 300.647Z" fill="white"/>
<path fill-rule="evenodd" clip-rule="evenodd" d="M191.168 141.403L217.713 225.067C228.999 219.918 252.67 210.494 257.058 213.982L223.988 141.289L191.168 141.403Z" fill="#213ACF"/>
<path d="M233.609 162.438L243.628 184.462C242.591 186.902 239.125 190.629 231.812 189.435C223.93 188.149 218.63 173.971 216.966 167.042L233.609 162.438Z" fill="#1A2FB0"/>
<path d="M280.644 108.444L312.916 58.6288C304.894 57.169 287.317 51.6218 283.379 45.4907L258.764 102.97C262.593 103.152 273.642 104.065 280.644 108.444Z" fill="#F8F0D7"/>
<path d="M280.097 53.1535L280.643 52.0054C281.92 52.0054 284.582 52.3338 285.019 53.6476C285.202 54.1951 285.202 54.6208 285.202 55.006C285.202 55.7765 285.202 56.3847 286.66 57.4796C287.301 57.9606 287.895 58.3007 288.387 58.5825C289.575 59.2627 290.169 59.6028 289.395 60.7641C288.301 62.4063 287.208 64.4342 287.208 70.0702C287.208 73.4064 285.45 74.7727 283.296 75.3041C283.612 76.4615 282.499 77.2933 281.494 78.0454C280.646 78.6791 279.874 79.2562 280.097 79.9238C280.643 81.566 279.55 84.3031 278.456 86.4928C277.655 88.0958 276.854 87.9386 275.838 87.7392C275.467 87.6663 275.066 87.5877 274.627 87.5877C272.986 87.5877 270.798 85.9454 271.892 84.3031C272.767 82.9893 270.068 81.2011 268.61 80.4712L268.813 79.5031L273.735 68.0101C274.286 68.3698 274.964 68.8725 275.558 69.4268C275.506 68.6847 275.498 67.8044 275.491 66.9493C275.481 65.8797 275.472 64.8494 275.376 64.1778L280.097 53.1535Z" fill="#F4E5B4"/>
<path d="M267.516 91.4196C266.057 91.4196 263.249 91.967 263.687 94.1567C263.881 95.128 263.662 96.1683 263.469 97.0817C263.119 98.7424 262.858 99.984 265.328 99.6309C267.19 99.3647 267.887 98.8397 268.427 98.4334C268.998 98.0041 269.392 97.7074 270.798 97.9886C273.533 98.536 275.173 96.3464 274.627 94.7041C274.08 93.0623 274.08 93.0617 272.986 91.967C272.439 91.4196 272.712 91.1459 272.986 90.8722C273.259 90.5985 273.533 90.3247 272.986 89.7773C272.11 88.9015 268.974 90.5072 267.516 91.4196Z" fill="#F4E5B4"/>
<path d="M295.412 65.1434C296.288 64.2676 297.6 64.7785 298.147 65.1434C298.512 65.5084 299.57 66.3478 300.882 66.7857C302.523 67.3331 301.429 68.428 300.335 69.5228C299.241 70.6176 298.147 68.428 297.6 67.3331C297.327 66.7857 296.917 67.0594 296.506 67.3331C296.096 67.6068 295.686 67.8805 295.412 67.3331C295.285 67.0787 295.158 66.8834 295.052 66.7197C294.7 66.1791 294.573 65.9838 295.412 65.1434Z" fill="#F4E5B4"/>
<path d="M283.925 78.2815C283.379 78.2815 282.285 79.3764 282.832 79.9238C283.02 80.1127 283.274 80.1713 283.549 80.2344C284.069 80.3542 284.661 80.4907 285.019 81.566C285.567 83.2083 287.754 83.2083 287.754 81.566C287.754 81.1555 287.789 80.8819 287.814 80.6766C287.837 80.4946 287.853 80.3664 287.833 80.2443C287.784 79.9532 287.528 79.6969 286.661 78.8294C285.348 77.5155 284.29 77.9166 283.925 78.2815Z" fill="#F4E5B4"/>
<path d="M283.378 45.4916L256.029 44.9442L238.525 90.9275C239.619 93.847 245.308 100.124 259.311 101.876L283.378 45.4916Z" fill="#F0E3BA"/>
<path d="M238.535 90.9005L243.547 77.734C246.498 77.7438 252.314 78.1914 252.747 79.9235C252.992 80.9057 252.687 81.5575 252.375 82.2247C251.991 83.0449 251.597 83.8884 252.2 85.3977C252.66 86.5478 253.602 87.2147 254.378 87.7638C255.449 88.5214 256.203 89.0549 254.935 90.3245C254.253 91.0071 253.943 91.5833 253.69 92.0532C253.132 93.0904 252.853 93.609 249.465 93.609C246.975 93.609 246.304 92.769 245.754 92.0802C245.216 91.407 244.794 90.8781 242.901 91.4193C239.891 92.2801 238.747 91.449 238.535 90.9005Z" fill="#EBD9A0"/>
<path d="M273.755 68.0365L268.539 80.2564C268.058 79.8764 267.4 79.3883 266.422 78.8286C264.986 78.0075 264.166 77.3403 263.499 76.7982C262.388 75.8948 261.704 75.3388 259.311 74.9967C257.19 74.6934 256.58 75.2301 256.178 75.5831C255.855 75.8673 255.667 76.0324 254.935 75.5441C253.622 74.6682 254.753 73.3544 255.482 72.807V71.7122C254.57 70.6173 252.528 67.8803 251.653 65.6906C250.559 62.9535 253.294 61.3112 256.029 60.2164L256.333 60.0942C259.039 59.0072 262.593 57.5794 262.593 60.2164C262.593 62.7869 264.523 63.4261 268.835 64.8547L268.838 64.8557C269.117 64.948 269.405 65.0435 269.704 65.1431C272.518 66.082 273.187 66.8419 273.755 68.0365Z" fill="#EBD9A0"/>
<path d="M280.615 51.9658L275.56 63.8073C274.878 62.8671 273.206 61.4569 270.798 61.8586C267.516 62.4061 267.516 60.7638 267.516 58.0267C267.516 56.3729 266.517 55.5185 265.606 54.7389C265.009 54.2283 264.45 53.7499 264.234 53.0999C263.813 51.8373 265.009 51.5454 267.325 50.9804C268.021 50.8105 268.818 50.6159 269.703 50.3628C271.578 49.8267 271.748 50.3406 271.883 50.7477C272.023 51.172 272.125 51.4803 274.079 50.3628C277.111 48.6289 279.679 50.6851 280.615 51.9658Z" fill="#EBD9A0"/>
<path d="M260.952 50.9102C260.405 50.9102 259.858 50.9102 259.311 52.0051C258.764 53.0999 258.764 53.6473 259.311 54.1948C259.584 54.4685 259.311 54.7422 259.037 55.0159C258.764 55.2896 258.49 55.5633 258.764 55.837C259.311 56.3844 260.405 57.4793 261.499 56.9319C261.763 56.7996 262.028 56.6992 262.269 56.6077C263.026 56.3205 263.554 56.1198 263.14 55.2896C262.593 54.1948 262.593 53.6473 263.14 53.6473C263.687 53.6473 262.593 51.4577 262.046 51.4577C261.608 51.4577 261.134 51.0927 260.952 50.9102Z" fill="#EBD9A0"/>
<path d="M257.67 78.2812C257.232 77.4054 257.487 77.5513 257.67 77.7338H260.405C260.952 77.7338 260.952 78.2812 260.405 78.8286C260.067 79.167 260.355 79.2962 260.754 79.4748C261.001 79.5852 261.29 79.7144 261.499 79.9235C261.863 80.2884 261.499 80.4101 260.891 80.6128C260.587 80.7142 260.222 80.8359 259.858 81.0183C258.764 81.5657 258.764 80.4709 259.311 79.3761C259.584 78.8286 259.311 78.8286 258.9 78.8286C258.49 78.8286 257.943 78.8286 257.67 78.2812Z" fill="#EBD9A0"/>
<path d="M238.525 90.9265L221.568 75.5988C227.038 65.3803 238.963 42.5346 242.901 32.9C245.454 36.4974 251.653 44.0048 256.029 44.9433L238.525 90.9265Z" fill="#F8F0D7"/>
<path d="M224.021 70.9844C224.268 71.1883 224.56 71.0978 225.019 70.9556C225.482 70.8125 226.113 70.6169 227.038 70.6169C228.497 70.6169 228.983 70.8602 229.955 71.3468C230.442 71.5901 231.049 71.8942 231.961 72.2592C233.593 72.9125 234.056 72.3961 234.63 71.7571C235.017 71.3254 235.455 70.8376 236.337 70.6169C237.947 70.2141 238.076 70.1077 238.904 69.4251C239.201 69.1802 239.588 68.8609 240.166 68.4272C241.313 67.5665 241.257 67.4576 241.024 66.9973C240.812 66.5793 240.453 65.8715 240.713 64.0479C241.029 61.8355 241.344 61.8128 241.976 61.7674C242.438 61.7342 243.07 61.6888 243.995 60.7633C245.324 59.4328 245.038 59.315 244.118 58.9362C243.524 58.6915 242.665 58.338 241.807 57.4788C239.619 55.2892 239.072 54.1944 237.978 52.0047C237.334 50.7153 235.662 50.7309 234.316 51.0473C230.806 58.0321 226.993 65.3611 224.021 70.9844Z" fill="#F4E5B4"/>
<path d="M246.378 37.3103C246.312 37.2809 246.247 37.2522 246.183 37.2243C245.454 37.2243 244.323 37.8812 245.636 40.5088C246.193 41.6232 246.687 42.2334 247.032 42.6603C247.705 43.4915 247.814 43.6271 246.73 45.4356C246.262 46.2163 245.794 46.7743 245.427 47.2112C244.509 48.3063 244.228 48.641 246.183 49.815C247.036 50.3273 247.623 50.8396 248.077 51.2356C249.078 52.109 249.43 52.4164 250.559 50.9098C251.149 50.1224 251.598 49.7597 251.93 49.4908C252.523 49.012 252.747 48.8307 252.747 47.0779C252.747 45.5042 252.747 44.8353 252.955 44.2389C253.02 44.0509 253.107 43.87 253.22 43.6703C250.909 42.1799 248.436 39.6905 246.378 37.3103Z" fill="#F4E5B4"/>
<path fill-rule="evenodd" clip-rule="evenodd" d="M237.431 59.121C237.733 59.121 237.978 58.8759 237.978 58.5736C237.978 58.2713 237.733 58.0262 237.431 58.0262C237.129 58.0262 236.884 58.2713 236.884 58.5736C236.884 58.8759 237.129 59.121 237.431 59.121ZM237.431 60.2159C238.337 60.2159 239.072 59.4806 239.072 58.5736C239.072 57.6666 238.337 56.9313 237.431 56.9313C236.525 56.9313 235.79 57.6666 235.79 58.5736C235.79 59.4806 236.525 60.2159 237.431 60.2159Z" fill="#CD3434"/>
<path fill-rule="evenodd" clip-rule="evenodd" d="M271.345 93.0614C271.647 93.0614 271.892 92.8163 271.892 92.5139C271.892 92.2116 271.647 91.9665 271.345 91.9665C271.043 91.9665 270.798 92.2116 270.798 92.5139C270.798 92.8163 271.043 93.0614 271.345 93.0614ZM271.345 94.1562C272.251 94.1562 272.986 93.4209 272.986 92.5139C272.986 91.6069 272.251 90.8717 271.345 90.8717C270.439 90.8717 269.704 91.6069 269.704 92.5139C269.704 93.4209 270.439 94.1562 271.345 94.1562Z" fill="#CD3434"/>
<path fill-rule="evenodd" clip-rule="evenodd" d="M265.875 74.4486C266.177 74.4486 266.422 74.2035 266.422 73.9011C266.422 73.5988 266.177 73.3537 265.875 73.3537C265.573 73.3537 265.328 73.5988 265.328 73.9011C265.328 74.2035 265.573 74.4486 265.875 74.4486ZM265.875 75.5434C266.781 75.5434 267.516 74.8081 267.516 73.9011C267.516 72.9941 266.781 72.2589 265.875 72.2589C264.969 72.2589 264.234 72.9941 264.234 73.9011C264.234 74.8081 264.969 75.5434 265.875 75.5434Z" fill="#CD3434"/>
<path d="M229.226 63.1593C223.209 59.8748 222.115 69.1809 221.568 70.2758L224.303 71.767C225.033 71.4021 224.85 65.7454 229.773 67.9351C231.004 68.4825 235.243 66.4438 229.226 63.1593Z" fill="#FA7D5D"/>
<path d="M219.927 64.1035C217.739 59.7241 219.563 56.2571 221.021 55.3447L210.081 50.418C210.519 53.4835 207.711 57.5344 206.252 59.1767C206.252 63.994 215.551 64.6509 219.927 64.1035Z" fill="#FA7D5D"/>
<path d="M220.475 64.1024C216.099 64.1024 209.17 60.8179 206.253 59.1757C194.948 87.0941 176.715 143.697 194.219 146.763C211.723 149.828 222.663 146.945 225.945 145.121C225.58 141.654 224.741 129.902 224.304 110.633C223.866 91.3639 221.569 71.5838 220.475 64.1024Z" fill="#C4DFF6"/>
<path d="M211.961 61.9132C214.838 63.0928 218.049 64.1025 220.475 64.1025C221.569 71.5839 223.866 91.364 224.304 110.633C224.422 115.849 224.57 120.514 224.73 124.613C221.938 122.776 218.689 117.454 215.005 106.802C203.19 72.6426 207.894 62.6431 211.723 61.9132H211.961Z" fill="#ABD1F1"/>
<path d="M294.119 80.8647C291.317 80.8642 288.688 88.4432 287.207 90.6931L291.759 88.899C294.919 84.2333 296.195 80.865 294.119 80.8647Z" fill="#FF8C6E"/>
<path d="M225.944 120.487C220.693 120.487 217.193 105.89 216.099 98.5906L225.944 85.9999L231.414 105.16L236.337 103.517C245.089 100.452 275.903 94.7592 286.114 92.5695C286.661 88.1902 296.507 86.0006 298.695 80.5263C300.523 75.9519 298.148 91.4741 293.225 97.4957C289.286 102.313 289.213 100.781 286.114 100.233C273.533 107.35 232.508 120.487 225.944 120.487Z" fill="#FF8C6E"/>
<path d="M208.534 77.3097C209.185 82.9895 213.681 98.9728 215.848 106.255C220.399 102.322 230.492 102.058 234.149 102.423C231.961 94.7587 228.282 70.1008 221.131 65.2949C212.191 59.2875 207.722 70.2101 208.534 77.3097Z" fill="#D6E7F6"/>
<path d="M227.838 102.447C227.472 102.477 227.1 102.512 226.724 102.552C224.997 97.1126 223.191 91.3818 221.511 85.9848C219.719 80.2291 218.071 74.8513 216.815 70.6104C215.959 67.7197 215.28 65.3398 214.865 63.7276C215.214 63.6388 215.576 63.583 215.952 63.5635C216.36 65.1333 217.02 67.4502 217.864 70.2993C219.117 74.5331 220.764 79.9053 222.555 85.6591C224.258 91.1288 226.091 96.9419 227.838 102.447Z" fill="#9DC9EE"/>
<path d="M212.169 65.2613L223.15 103.113C222.792 103.189 222.435 103.271 222.082 103.36L211.307 66.2148C211.576 65.8696 211.863 65.5502 212.169 65.2613Z" fill="#9DC9EE"/>
<path d="M215.086 63.0629C217.009 63.6802 218.906 64.1025 220.475 64.1025C220.542 64.5659 220.615 65.0765 220.691 65.6312C215.606 63.5538 209.098 66.306 201.877 80.5261C198.307 87.5551 195.871 91.5547 194.276 93.4164C197.151 83.6946 200.501 74.066 203.606 65.9184C206.659 63.9998 210.463 62.801 215.086 63.0629Z" fill="#A71814"/>
<path fill-rule="evenodd" clip-rule="evenodd" d="M183.398 34.6708C181.848 36.5635 180.875 38.958 180.478 40.5472L176.233 39.4851C176.748 37.4248 177.963 34.3998 180.014 31.895C182.087 29.3634 185.217 27.1485 189.441 27.4303C191.745 27.5841 193.502 28.651 194.689 30.2624C195.812 31.7871 196.351 33.6883 196.593 35.5138C197.075 39.1655 196.468 43.3232 195.794 46.0215L191.549 44.9594C192.151 42.5484 192.638 38.9874 192.255 36.0883C192.063 34.6384 191.679 33.5561 191.167 32.8615C190.719 32.2535 190.128 31.8652 189.15 31.8C186.811 31.6439 184.926 32.8047 183.398 34.6708Z" fill="#A71814"/>
<path d="M165.774 34.5427C156.585 34.5427 146.629 66.6579 142.8 82.7156C138.607 93.1166 130.11 116.656 129.673 127.604C129.126 141.289 188.201 163.186 196.953 159.354C205.705 155.522 209.534 64.1033 206.252 54.2498C202.97 44.3962 177.261 34.5427 165.774 34.5427Z" fill="#D13734"/>
<path d="M133.475 102.638L172.896 126.686L169.802 147.587L130.811 124.074L129.772 120.232C128.117 114.112 129.494 107.57 133.475 102.638Z" fill="#A71814"/>
<path d="M178.205 135.43C178.392 141.85 174.378 147.736 170.151 147.859C166.869 146.764 163.082 142.295 162.896 135.874C162.71 129.453 165.986 124.149 170.214 124.026C174.441 123.903 178.019 129.009 178.205 135.43Z" fill="#781A18"/>
<path d="M162.353 49.3225L166.268 50.5052L151.092 100.815L147.178 99.6324L162.353 49.3225Z" fill="#A71814"/>
<path d="M183.139 60.2719L187.054 61.4546L171.878 111.764L167.963 110.582L183.139 60.2719Z" fill="#A71814"/>
<path d="M137.331 84.3578C139.519 80.8544 145.171 81.8032 147.724 82.7156C154.288 85.6351 169.385 92.569 177.262 96.9484C187.108 102.423 183.279 106.254 181.638 113.371C179.997 120.487 179.45 129.246 170.151 129.246C160.852 129.246 134.596 106.802 131.861 103.517C129.126 100.233 134.596 88.7372 137.331 84.3578Z" fill="#C22420"/>
<path d="M224.85 56.439C215.223 59.0666 206.982 50.2349 204.065 45.4906L215.551 20.8567L243.995 17.0248L242.901 29.068C242.354 31.6226 241.26 36.7319 239.072 38.9216C236.337 41.6587 240.713 43.8483 239.619 46.038C238.885 47.5069 237.664 46.5854 235.79 48.7751C234.479 50.3079 233.002 51.3749 232.388 52.0374C232.321 52.1243 232.252 52.2107 232.181 52.2967C230.804 53.9524 228.552 55.4287 224.85 56.439Z" fill="#FF8C6E"/>
<path d="M200.782 25.2378C197.282 39.6897 204.429 47.4997 207.346 48.777C222.115 55.2434 219.38 27.331 229.226 29.0698C236.665 30.3836 246.183 30.7121 251.653 29.6172C247.277 30.0552 245.818 26.5152 245.636 25.2379C252.2 26.5517 256.758 21.7709 258.217 19.2163C251.653 21.4059 246.365 17.574 244.542 15.3843L253.294 12.0998C253.294 12.0998 248.918 13.1934 244.542 11.5517C237.371 8.86164 231.414 4.98271 224.85 4.43529C218.286 3.88787 205.158 7.17293 200.782 25.2378Z" fill="#32327A"/>
<path d="M221.928 30.9419C224.739 31.5385 224.783 34.7943 224.015 36.2544C223.909 39.6406 222.119 45.2014 219.316 41.1005C215.813 35.9744 218.415 30.1962 221.928 30.9419Z" fill="#FF8C6E"/>
<path d="M231.414 44.3961C231.414 47.1171 229.21 49.3229 226.491 49.3229C223.772 49.3229 221.568 47.1171 221.568 44.3961C221.568 41.6752 223.772 39.4694 226.491 39.4694C229.21 39.4694 231.414 41.6752 231.414 44.3961Z" fill="#FF6344"/>
<path d="M234.849 39.1153C234.578 40.3881 233.7 41.2795 232.887 41.1064C232.074 40.9334 231.634 39.7613 231.904 38.4886C232.175 37.2158 233.053 36.3244 233.866 36.4975C234.679 36.6705 235.119 37.8426 234.849 39.1153Z" fill="#090F39"/>
<path fill-rule="evenodd" clip-rule="evenodd" d="M233.136 33.1052C232.243 33.1251 231.379 33.4849 230.586 33.9261C230.322 34.0729 229.989 33.9777 229.842 33.7134C229.695 33.4491 229.79 33.1158 230.054 32.969C230.902 32.4979 231.953 32.0364 233.111 32.0107C234.297 31.9843 235.532 32.4155 236.724 33.6078C236.937 33.8216 236.937 34.1682 236.724 34.382C236.51 34.5957 236.164 34.5957 235.95 34.382C234.954 33.3846 234.001 33.086 233.136 33.1052Z" fill="#2A2B3D"/>
<path fill-rule="evenodd" clip-rule="evenodd" d="M227.389 47.8366C227.606 47.7284 227.868 47.8161 227.976 48.0325C228.752 49.5838 229.596 49.9979 230.225 50.05C230.896 50.1055 231.476 49.7651 231.711 49.5486C231.889 49.3846 232.165 49.3959 232.329 49.5738C232.493 49.7516 232.482 50.0287 232.304 50.1926C231.945 50.5234 231.135 51.0042 230.153 50.9229C229.129 50.8381 228.06 50.1573 227.194 48.4242C227.086 48.2078 227.173 47.9448 227.389 47.8366Z" fill="#2A2B3D"/>
</svg>
