<svg width="280" height="241" viewBox="0 0 280 241" fill="none" xmlns="http://www.w3.org/2000/svg">
<path d="M132.427 0.436622C122.662 1.21469 120.001 8.32536 119.891 11.7834C103.793 -4.81529 93.3907 7.46082 90.202 15.6737C84.396 15.6737 83.3842 21.077 83.6041 23.7786C79.3156 25.3996 53.254 27.6689 75.3567 32.856C103.631 39.4915 135.726 36.7464 161.787 37.0706C187.848 37.3948 190.487 28.9657 189.167 25.0754C187.848 21.185 173.333 27.6689 174.322 18.9157C175.114 11.9131 160.797 13.8366 153.54 15.6737C154.749 14.377 156.443 11.3296 153.54 9.51402C150.637 7.69848 146.612 10.2705 144.963 11.7834C144.853 7.67697 142.192 -0.341446 132.427 0.436622Z" fill="#ECF2FF"/>
<path d="M223.669 118.443C214.021 119.21 211.392 126.22 211.283 129.63C195.377 113.266 185.099 125.368 181.948 133.465C176.211 133.465 175.212 138.791 175.429 141.455C171.191 143.053 145.441 145.29 167.28 150.404C195.217 156.945 226.928 154.239 252.678 154.559C278.428 154.878 281.036 146.568 279.732 142.733C278.428 138.898 264.086 145.29 265.064 136.661C265.847 129.757 251.7 131.654 244.53 133.465C245.725 132.186 247.398 129.182 244.53 127.392C241.661 125.602 237.685 128.138 236.055 129.63C235.946 125.581 233.317 117.676 223.669 118.443Z" fill="#ECF2FF"/>
<path d="M79.4994 172.192C93.1156 173.282 96.8264 183.244 96.9797 188.088C119.428 164.835 133.933 182.033 138.38 193.538C146.476 193.538 147.887 201.108 147.58 204.893C153.56 207.164 189.902 210.343 159.081 217.61C119.654 226.906 74.8993 223.06 38.5588 223.514C2.21832 223.968 -1.46169 212.16 0.378342 206.71C2.21837 201.259 22.4586 210.343 21.0786 198.08C19.9746 188.27 39.9388 190.965 50.059 193.538C48.3723 191.722 46.0109 187.453 50.059 184.909C54.107 182.366 59.7192 185.969 62.0192 188.088C62.1725 182.336 65.8832 171.102 79.4994 172.192Z" fill="#ECF2FF"/>
<path d="M279.883 59.3303C279.883 87.1167 256.897 109.642 228.543 109.642C200.189 109.642 177.203 87.1167 177.203 59.3303C177.203 31.5439 200.189 9.01855 228.543 9.01855C256.897 9.01855 279.883 31.5439 279.883 59.3303Z" fill="#FFA502"/>
<path d="M187.438 103.159C190.07 94.559 166.814 73.4882 166.375 73.0582L167.253 85.9587L178.662 101.009C174.712 110.9 171.767 114.603 171.329 115.033C170.978 115.377 173.103 118.353 175.151 122.51C178.954 118.64 185.331 110.04 187.438 103.159Z" fill="#FA7D5D"/>
<path d="M198.529 194.592C185.882 193.09 159.374 189.427 154.52 186.79L158.979 169.933L192.865 160.573L198.529 194.592Z" fill="#9BBCFE"/>
<path d="M16.6639 97.4033L162.453 225.773L167.756 169.508L234.694 159.946L16.6639 97.4033Z" fill="#83A9F4"/>
<path d="M162.453 225.773L16.6639 97.4033L167.756 169.508L162.453 225.773Z" fill="#BED4FF" fill-opacity="0.8"/>
<path d="M184.593 125.053C181.094 121.226 172.346 123.459 168.409 125.053C164.618 139.039 160.361 165.392 173.658 158.914C190.279 150.817 188.967 129.838 184.593 125.053Z" fill="#FA7D5D"/>
<path d="M186.966 140.921C182.941 133.24 175.026 124.783 174.712 125.09L168.13 145.301L177.198 156.819C183.028 152.671 185.922 146.662 186.966 140.921Z" fill="#C4DFF6"/>
<path d="M97.922 101.009C113.28 96.7092 151.456 122.51 151.895 123.37L176.029 125.95L176.039 125.974C179.992 134.869 187.955 152.788 177.784 158.631C165.059 165.942 133.465 148.311 121.179 140.141C108.892 131.97 82.5639 105.309 97.922 101.009Z" fill="#FF8C6E"/>
<path d="M151.398 122.94C151.698 123.17 151.868 123.317 151.895 123.37L176.029 125.95L176.039 125.974C179.992 134.869 187.955 152.788 177.784 158.631C168.83 163.775 150.533 156.57 136.194 149.001L145.751 122.94H151.398Z" fill="#D6E7F6"/>
<path d="M120.301 112.19C137.853 125.52 151.017 123.8 156.283 123.8L153.211 123.37L142.978 121.473C138.995 120.734 135.136 119.459 131.511 117.682L120.301 112.19Z" fill="#FA7D5D"/>
<path d="M148.912 72.5345C153.826 70.4704 153.3 64.2209 152.422 61.3541L151.983 60.9241L159.845 58.8965C159.692 58.2471 159.954 58.3638 160.32 58.774L159.845 58.8965C160.119 60.0623 161.729 63.697 166.463 72.5345C173.835 86.295 175.971 114.676 176.117 127.146C168.219 126.573 150.403 125.176 151.456 123.8C152.508 122.424 151.251 113.959 149.35 109.946C148.619 108.799 146.454 105.216 143.646 100.055C140.837 94.8953 145.166 80.2253 147.507 77.3585C146.044 74.0617 143.997 74.5986 148.912 72.5345Z" fill="#FA7D5D"/>
<path d="M169.105 78.6467C174.362 93.4786 175.99 116.314 176.117 127.146C168.219 126.573 150.403 125.176 151.456 123.8C152.508 122.424 151.251 113.959 149.35 109.946C148.619 108.799 146.454 105.215 143.646 100.055C141.496 96.1067 143.527 86.59 145.647 81.0541L147.946 79.0786L149.861 72.0449C150.508 71.6411 151.033 71.1498 151.455 70.5989C152.921 70.3203 155.171 70.4261 158.038 71.9869C159.093 72.5612 159.924 73.9243 160.779 75.3254C162.123 77.5272 163.523 79.8228 165.936 79.2972C166.671 79.1371 167.334 79.005 167.932 78.8856C168.354 78.8014 168.744 78.7235 169.105 78.6467Z" fill="#213ACF"/>
<path d="M142.784 93.6357C144.241 98.5469 149.136 106.378 158.038 101.01C156.528 103.846 152.418 108.106 146.827 105.732C145.925 104.171 144.844 102.257 143.646 100.055C143.636 100.038 143.627 100.021 143.618 100.003C142.821 98.4958 142.616 96.2027 142.784 93.6357Z" fill="#2034A6"/>
<path d="M71.9947 58.022C73.9484 57.1776 87.1629 61.768 93.5259 64.1688C115.358 66.8375 153.742 71.6215 157.68 75.6061C162.603 80.587 160.402 91.358 153.798 90.3491C147.194 89.3402 97.591 69.8026 93.8734 71.1776C90.1558 72.5526 86.4758 74.3675 81.7803 71.9929C75.8204 68.9789 77.7279 65.4627 79.7157 64.0771C75.5384 61.8582 70.3662 58.7259 71.9947 58.022Z" fill="#FF8C6E"/>
<path d="M139.718 26.7073C141.842 18.7407 149.013 21.5773 152.333 23.9914L144.697 42.0972C142.152 40.2866 137.593 34.6739 139.718 26.7073Z" fill="#32327A"/>
<path d="M143.578 40.8072C142.876 29.7988 148.551 25.9 151.476 25.3266L156.742 24.8966L168.151 34.3569C168.59 42.5272 167.449 59.2978 159.375 61.0179C149.282 63.1679 145.751 60.1578 144.435 58.4378C143.382 57.0617 142.408 52.4176 142.7 50.2675C142.554 50.1241 141.998 49.5795 140.945 48.5474C139.629 47.2574 139.629 45.5373 141.823 44.6773C144.017 43.8173 143.578 41.2372 143.578 40.8072Z" fill="#FF8C6E"/>
<path d="M155.844 51.5575C155.844 53.9324 153.879 55.8577 151.456 55.8577C149.032 55.8577 147.068 53.9324 147.068 51.5575C147.068 49.1826 149.032 47.2574 151.456 47.2574C153.879 47.2574 155.844 49.1826 155.844 51.5575Z" fill="#FF6344"/>
<path fill-rule="evenodd" clip-rule="evenodd" d="M144.609 53.2377C144.688 53.0644 144.896 52.9872 145.073 53.0652C146.341 53.6246 147.076 53.4571 147.493 53.1763C147.938 52.8768 148.127 52.3814 148.163 52.1329C148.19 51.9448 148.368 51.8141 148.56 51.841C148.752 51.8679 148.885 52.0422 148.858 52.2303C148.802 52.6099 148.542 53.3053 147.89 53.7435C147.211 54.2004 146.201 54.3175 144.785 53.6926C144.608 53.6146 144.529 53.4109 144.609 53.2377Z" fill="#2A2B3D"/>
<path fill-rule="evenodd" clip-rule="evenodd" d="M148.888 37.7977C148.171 37.8133 147.479 38.0959 146.842 38.4425C146.63 38.5579 146.363 38.4831 146.245 38.2755C146.128 38.0678 146.204 37.8061 146.416 37.6907C147.096 37.3206 147.939 36.9582 148.868 36.9379C149.82 36.9172 150.81 37.2559 151.766 38.1925C151.938 38.3604 151.938 38.6327 151.766 38.8006C151.595 38.9686 151.317 38.9686 151.146 38.8006C150.346 38.0172 149.582 37.7826 148.888 37.7977Z" fill="#2A2B3D"/>
<path d="M200.163 48.5474C195.599 36.507 181.002 27.4767 174.274 24.4666C171.348 33.2102 165.41 51.3855 165.059 54.1376C164.708 56.8897 161.402 59.8711 159.793 61.0178C163.303 76.9284 168.13 81.6585 177.345 82.0885C186.56 82.5186 190.948 76.4983 200.163 85.9587C209.378 95.419 208.939 93.6989 214.205 90.2588C219.47 86.8187 224.297 94.129 231.318 88.9688C238.339 83.8086 234.829 79.9385 230.441 75.6383C226.052 71.3382 232.196 68.7581 226.491 61.0178C220.787 53.2775 205.867 63.5979 200.163 48.5474Z" fill="#32327A"/>
<path d="M147.509 23.1766C154.179 12.5122 169.303 20.4532 176.031 25.7567L171.641 49.8374L166.375 58.4377L159.793 61.0178C162.426 53.7075 161.987 48.1176 157.599 45.9673C151.456 42.9572 143.257 29.9757 147.509 23.1766Z" fill="#32327A"/>
<path d="M150.578 43.8173C150.578 45.2423 149.989 46.3974 149.262 46.3974C148.535 46.3974 147.945 45.2423 147.945 43.8173C147.945 42.3924 148.535 41.2372 149.262 41.2372C149.989 41.2372 150.578 42.3924 150.578 43.8173Z" fill="#090F39"/>
</svg>
