<svg width="313" height="112" viewBox="0 0 313 112" fill="none" xmlns="http://www.w3.org/2000/svg">
<path d="M311.746 85.6604L294.199 68.1219C293.647 67.5746 292.9 67.2698 292.123 67.274C291.65 67.2903 291.189 67.4205 290.777 67.6543L280.863 57.7452C288.829 48.3422 291.274 35.4516 287.306 23.7863C283.337 12.1208 273.537 3.39274 261.487 0.791126C249.438 -1.80962 236.908 2.0988 228.477 11.0882C220.046 20.0767 216.952 32.8272 220.326 44.6766C220.849 46.1153 222.393 46.9075 223.866 46.493C225.34 46.0785 226.245 44.5979 225.941 43.0984C224.032 36.3108 224.642 29.0617 227.659 22.6884C230.675 16.3145 235.896 11.2457 242.357 8.41538C248.818 5.5851 256.085 5.18522 262.818 7.2884C269.551 9.39166 275.297 13.8559 278.997 19.86C282.696 25.8632 284.099 33.0009 282.949 39.9583C281.798 46.9145 278.169 53.22 272.734 57.7142C272.08 58.1878 271.652 58.9097 271.549 59.7105C271.447 60.5112 271.68 61.3179 272.194 61.9405C272.707 62.5631 273.455 62.9458 274.262 62.9972C275.067 63.0495 275.858 62.7669 276.448 62.2154L276.769 61.9234L286.654 71.8032C286.056 72.9294 286.257 74.3141 287.151 75.2237L304.698 92.7622C305.839 93.8952 307.682 93.8952 308.822 92.7622L311.746 89.8394V89.8385C312.881 88.6987 312.881 86.8574 311.746 85.7168L311.746 85.6604Z" fill="#65647C"/>
<path d="M274.521 38.4477C275.309 38.4477 276.065 38.1343 276.623 37.5771C277.18 37.0199 277.493 36.2642 277.493 35.4762C277.493 29.1701 274.988 23.1235 270.529 18.6649C266.071 14.2063 260.024 11.7015 253.719 11.7015C252.078 11.7015 250.746 13.0318 250.746 14.673C250.746 16.3141 252.078 17.6454 253.719 17.6454C258.447 17.6454 262.982 19.5234 266.326 22.8676C269.671 26.2118 271.55 30.747 271.55 35.4762C271.55 36.2642 271.862 37.0199 272.419 37.5771C272.977 38.1343 273.733 38.4477 274.521 38.4477V38.4477Z" fill="#65647C"/>
<path d="M251.582 31.7612C250.474 31.7612 249.411 32.1722 248.627 32.9036C247.843 33.6349 247.403 34.627 247.403 35.6614C247.417 36.4585 247.621 37.2427 248 37.957C248.522 38.9194 249.191 39.8054 249.988 40.5868C250.363 40.9673 250.761 41.3264 251.182 41.662C251.403 41.834 251.725 41.834 251.946 41.662C252.625 41.1083 253.248 40.4985 253.809 39.8401C254.316 39.2573 254.753 38.6238 255.11 37.9512C255.506 37.2422 255.728 36.4601 255.761 35.6614C255.761 34.627 255.321 33.6349 254.537 32.9036C253.753 32.1722 252.691 31.7612 251.582 31.7612H251.582ZM254.567 35.6614C254.54 36.2928 254.365 36.9108 254.054 37.4721C253.58 38.335 252.977 39.1304 252.263 39.8346C251.994 40.1077 251.761 40.3249 251.57 40.4865L251.57 40.4864C251.065 40.044 250.596 39.5672 250.167 39.0601C249.734 38.5545 249.364 38.0049 249.063 37.422C248.772 36.8736 248.613 36.2729 248.597 35.6614C248.596 34.9225 248.909 34.2132 249.468 33.6899C250.027 33.1664 250.785 32.8718 251.577 32.8705C252.369 32.8694 253.129 33.1617 253.69 33.6834C254.258 34.2038 254.575 34.9181 254.567 35.6614Z" fill="#65647C"/>
<path d="M252.418 34.2686C252.418 34.7303 252.044 35.1045 251.582 35.1045C251.12 35.1045 250.746 34.7303 250.746 34.2686C250.746 33.807 251.12 33.4329 251.582 33.4329C252.044 33.4329 252.418 33.807 252.418 34.2686Z" fill="#C7BCA1"/>
<path d="M266.429 45.8061C266.919 45.7835 267.336 46.1619 267.359 46.6516C267.382 47.1409 267.003 47.5572 266.512 47.5799L265.063 47.6609C264.573 47.6892 264.151 47.3157 264.122 46.8261C264.094 46.3368 264.468 45.9155 264.959 45.8873L266.429 45.8061ZM235.448 35.4706C235.054 35.7624 234.497 35.6798 234.205 35.2865C233.912 34.8931 233.995 34.3365 234.389 34.0449L250.711 21.906C251.038 21.6641 251.476 21.6793 251.784 21.9153L268.093 34.0455C268.487 34.3373 268.569 34.894 268.277 35.287C267.985 35.6804 267.427 35.7627 267.034 35.4712L251.242 23.7256L235.449 35.4712L235.448 35.4706ZM273.325 43.3683C273.815 43.4046 274.183 43.8318 274.147 44.3214C274.11 44.8107 273.682 45.1783 273.192 45.1419C266.661 44.6473 260.141 45.2695 253.904 46.9383C247.665 48.6068 241.707 51.3215 236.3 55.0095C235.895 55.2861 235.34 55.1815 235.064 54.7767C234.786 54.3718 234.891 53.8182 235.297 53.5419C240.873 49.7384 247.015 46.9399 253.444 45.2204C259.874 43.5004 266.594 42.8583 273.325 43.3684L273.325 43.3683ZM262.097 46.1544C262.585 46.097 263.028 46.4463 263.086 46.9334C263.143 47.4208 262.793 47.8632 262.305 47.9207C259.431 48.2628 256.591 48.83 253.817 49.614C251.046 50.3967 248.333 51.3992 245.705 52.6109C245.259 52.8165 244.73 52.6215 244.524 52.1763C244.318 51.7311 244.514 51.2027 244.96 50.9971C247.668 49.7475 250.47 48.713 253.337 47.9033C256.206 47.0927 259.136 46.5065 262.097 46.1544H262.097ZM238.401 34.1458L250.711 24.9905C251.038 24.7487 251.476 24.7639 251.784 24.9998L264.136 34.1869C264.371 34.3608 264.494 34.6284 264.495 34.8998L264.498 41.8716C264.498 42.3578 264.108 42.7534 263.622 42.7621C259.352 43.0769 255.144 43.8645 251.078 45.1005C247.002 46.3396 243.054 48.0351 239.314 50.1636C238.887 50.4055 238.344 50.2561 238.102 49.8299C238.023 49.6911 237.986 49.5402 237.986 49.3915L237.983 34.8999C237.983 34.5823 238.15 34.3032 238.401 34.1455L238.401 34.1458ZM251.24 26.8104L239.767 35.3433V47.8837C243.216 46.0358 246.833 44.5372 250.561 43.4036C254.516 42.2015 258.591 41.4107 262.714 41.0512V35.3433L251.24 26.8103V26.8104Z" fill="#65647C"/>
<path d="M2.784 91.4179V50.8179H10.73V67.9279H11.02L18.27 50.8179H26.448L17.98 70.1899L26.854 91.4179H18.038L11.136 73.6699H10.73V91.4179H2.784ZM46.124 91.4179H33.48C29.6134 87.8219 27.68 82.9112 27.68 76.6859C27.68 73.5539 28.1054 70.8279 28.956 68.5079C29.8454 66.1879 31.2374 63.9452 33.132 61.7799H46.704C48.7147 64.0999 50.0874 66.3619 50.822 68.5659C51.5567 70.7312 51.924 73.4379 51.924 76.6859C51.924 82.9112 49.9907 87.8219 46.124 91.4179ZM37.598 85.3279H42.006C43.398 82.6212 44.094 79.5472 44.094 76.1059C44.094 72.6646 43.3787 69.9192 41.948 67.8699H37.598C36.206 69.8419 35.51 72.6452 35.51 76.2799C35.51 79.8759 36.206 82.8919 37.598 85.3279ZM58.0698 61.7799H70.8878V67.8699H61.8398L67.3498 76.0479C69.8244 79.5666 71.1971 81.9832 71.4678 83.2979C71.6224 83.9166 71.6998 84.5546 71.6998 85.2119C71.6998 87.9572 70.6751 90.0259 68.6258 91.4179H53.8358V85.3279H64.4498L58.2438 76.2219C57.9731 75.7966 57.5478 75.1972 56.9678 74.4239C56.4264 73.6506 56.0011 73.0319 55.6918 72.5679C55.3824 72.0652 55.1698 71.6979 55.0538 71.4659C54.9378 71.2339 54.7831 70.9439 54.5898 70.5959C54.3964 70.2092 54.2611 69.8806 54.1838 69.6099C54.0291 68.8752 53.9518 68.2759 53.9518 67.8119C53.9518 64.9892 55.3244 62.9786 58.0698 61.7799ZM77.1871 78.4839V67.8699H73.1851V61.7799H77.1871V53.7179H84.9011V61.7799H89.6571V67.8699H84.9011V80.3399C84.9011 82.6986 85.3071 84.3612 86.1191 85.3279H89.6571V91.4179H81.4211C79.3718 89.5232 78.1345 87.4739 77.7091 85.2699C77.3611 83.4139 77.1871 81.1519 77.1871 78.4839ZM103.095 91.4179V50.8179H124.265V57.7779H111.041V67.9279H122.525V74.6559H111.041V91.4179H103.095ZM127.33 91.4179V61.7799H134.986V91.4179H127.33ZM127.33 50.8179H134.986V58.6479H127.33V50.8179ZM152.837 61.7799H158.985C160.686 63.9452 161.846 66.1106 162.465 68.2759C163.083 70.4412 163.393 73.1479 163.393 76.3959V91.4179H155.679V75.8159C155.679 72.1426 155.176 69.4939 154.171 67.8699H147.675V91.4179H139.961V61.7799H145.993L147.037 63.8679C147.887 63.0946 148.68 62.5532 149.415 62.2439C150.188 61.9346 151.329 61.7799 152.837 61.7799ZM190.614 91.4179H184.756L183.712 89.3299C182.861 90.1032 182.049 90.6446 181.276 90.9539C180.541 91.2632 179.42 91.4179 177.912 91.4179H172.866C171.164 89.7939 169.811 87.6672 168.806 85.0379C167.839 82.4086 167.356 79.4699 167.356 76.2219C167.356 72.9352 167.839 70.1512 168.806 67.8699C169.811 65.5886 171.222 63.5586 173.04 61.7799H178.028C180.077 61.7799 181.701 62.3212 182.9 63.4039V50.8179H190.614V91.4179ZM182.9 67.8699H177.332C175.901 70.3059 175.186 73.3026 175.186 76.8599C175.186 80.3786 175.882 83.2012 177.274 85.3279H182.9V67.8699ZM208.98 67.8699H204.63C204.05 68.5659 203.567 69.5326 203.18 70.7699C202.832 72.0072 202.658 73.2059 202.658 74.3659H210.952C211.029 73.2059 210.875 72.0072 210.488 70.7699C210.101 69.4939 209.599 68.5272 208.98 67.8699ZM216.868 85.3279V91.4179H202.136C199.429 89.6006 197.515 87.3579 196.394 84.6899C195.311 81.9832 194.77 79.2572 194.77 76.5119C194.77 70.1706 197.167 65.2599 201.962 61.7799H211.358C213.949 63.6746 215.708 65.6852 216.636 67.8119C217.564 69.9386 218.028 72.0846 218.028 74.2499C218.028 76.4152 217.854 78.2712 217.506 79.8179H203.064C203.18 80.7072 203.509 81.7319 204.05 82.8919C204.63 84.0132 205.249 84.8252 205.906 85.3279H216.868ZM221.978 91.4179V61.7799H227.488L228.938 64.9119C230.484 62.8239 232.437 61.7799 234.796 61.7799H237.058V69.5519H229.692V91.4179H221.978Z" fill="#C7BCA1"/>
</svg>
