<svg width="31" height="30" viewBox="0 0 31 30" fill="none" xmlns="http://www.w3.org/2000/svg">
<path fill-rule="evenodd" clip-rule="evenodd" d="M10.4587 6.25C7.76832 6.25 5.6134 8.44099 5.6134 11.1111C5.6134 12.4117 6.12103 13.593 6.95473 14.4685L15.4266 23.2199L23.7448 14.624C23.7532 14.6153 23.7618 14.6067 23.7704 14.5983C24.6802 13.7117 25.2401 12.4767 25.2401 11.1111C25.2401 8.44099 23.0851 6.25 20.3947 6.25C19.8107 6.25 19.1269 6.58334 18.366 7.27007C17.6245 7.9394 16.9604 8.8078 16.4255 9.57226C16.1953 9.90126 15.8233 10.0966 15.4267 10.0966C15.0302 10.0966 14.6581 9.90126 14.4279 9.57226C13.8931 8.8078 13.229 7.9394 12.4874 7.27007C11.7266 6.58334 11.0428 6.25 10.4587 6.25ZM3.16006 11.1111C3.16006 7.03109 6.4422 3.75 10.4587 3.75C11.9283 3.75 13.1791 4.55468 14.1141 5.39861C14.5956 5.83319 15.036 6.31704 15.4267 6.79335C15.8174 6.31704 16.2579 5.83319 16.7394 5.39861C17.6744 4.55468 18.9252 3.75 20.3947 3.75C24.4113 3.75 27.6934 7.03109 27.6934 11.1111C27.6934 13.1849 26.8418 15.0574 25.4796 16.3918L16.3002 25.8777C16.0697 26.1159 15.7551 26.25 15.4268 26.25C15.0986 26.25 14.784 26.116 14.5535 25.8778L5.19851 16.2142C3.93889 14.8937 3.16006 13.094 3.16006 11.1111Z" fill="#272C2F"/>
</svg>
