<svg width="30" height="30" viewBox="0 0 30 30" fill="none" xmlns="http://www.w3.org/2000/svg">
<path fill-rule="evenodd" clip-rule="evenodd" d="M3.67999 6.25C3.67999 4.86929 4.77839 3.75 6.13333 3.75H11.04C12.3949 3.75 13.4933 4.86929 13.4933 6.25V11.25C13.4933 12.6307 12.3949 13.75 11.04 13.75H6.13333C4.77839 13.75 3.67999 12.6307 3.67999 11.25V6.25ZM11.04 6.25H6.13333V11.25H11.04V6.25Z" fill="white"/>
<path fill-rule="evenodd" clip-rule="evenodd" d="M3.67999 18.75C3.67999 17.3693 4.77839 16.25 6.13333 16.25H11.04C12.3949 16.25 13.4933 17.3693 13.4933 18.75V23.75C13.4933 25.1307 12.3949 26.25 11.04 26.25H6.13333C4.77839 26.25 3.67999 25.1307 3.67999 23.75V18.75ZM11.04 18.75H6.13333V23.75H11.04V18.75Z" fill="white"/>
<path fill-rule="evenodd" clip-rule="evenodd" d="M15.9467 6.25C15.9467 4.86929 17.0451 3.75 18.4 3.75H23.3067C24.6616 3.75 25.76 4.86929 25.76 6.25V11.25C25.76 12.6307 24.6616 13.75 23.3067 13.75H18.4C17.0451 13.75 15.9467 12.6307 15.9467 11.25V6.25ZM23.3067 6.25H18.4V11.25H23.3067V6.25Z" fill="white"/>
<path fill-rule="evenodd" clip-rule="evenodd" d="M15.9467 18.75C15.9467 17.3693 17.0451 16.25 18.4 16.25H23.3067C24.6616 16.25 25.76 17.3693 25.76 18.75V23.75C25.76 25.1307 24.6616 26.25 23.3067 26.25H18.4C17.0451 26.25 15.9467 25.1307 15.9467 23.75V18.75ZM23.3067 18.75H18.4V23.75H23.3067V18.75Z" fill="white"/>
</svg>
