<svg width="30" height="30" viewBox="0 0 30 30" fill="none" xmlns="http://www.w3.org/2000/svg">
<path fill-rule="evenodd" clip-rule="evenodd" d="M15.7385 26.8726C17.8481 24.9904 23.75 19.0571 23.75 11.5909C23.75 7.04545 21.0156 2.5 15 2.5C8.98438 2.5 6.25 7.04545 6.25 11.5909C6.25 19.0571 12.1519 24.9904 14.2615 26.8726C14.6888 27.2539 15.3112 27.2539 15.7385 26.8726ZM15 15C17.0711 15 18.75 13.3211 18.75 11.25C18.75 9.17893 17.0711 7.5 15 7.5C12.9289 7.5 11.25 9.17893 11.25 11.25C11.25 13.3211 12.9289 15 15 15Z" fill="white"/>
</svg>
