<svg width="30" height="30" viewBox="0 0 30 30" fill="none" xmlns="http://www.w3.org/2000/svg">
<path fill-rule="evenodd" clip-rule="evenodd" d="M14.72 5C13.3651 5 12.2667 6.11929 12.2667 7.5C12.2667 8.88071 13.3651 10 14.72 10C16.0749 10 17.1733 8.88071 17.1733 7.5C17.1733 6.11929 16.0749 5 14.72 5ZM9.81333 7.5C9.81333 4.73858 12.0101 2.5 14.72 2.5C17.4299 2.5 19.6267 4.73858 19.6267 7.5C19.6267 10.2614 17.4299 12.5 14.72 12.5C12.0101 12.5 9.81333 10.2614 9.81333 7.5Z" fill="white"/>
<path fill-rule="evenodd" clip-rule="evenodd" d="M6.22687 21.2593C6.76682 22.4616 7.87152 23.3682 9.36512 24.0024C11.0182 24.7043 12.9957 25 14.72 25C16.4443 25 18.4218 24.7043 20.0749 24.0024C21.5685 23.3682 22.6732 22.4615 23.2131 21.2593C22.6561 20.1127 21.3591 19.1817 19.6463 18.5104C17.7965 17.7854 15.7993 17.5 14.72 17.5C13.6406 17.5 11.6435 17.7854 9.79367 18.5104C8.08092 19.1817 6.78392 20.1127 6.22687 21.2593ZM8.91298 16.1771C11.0498 15.3396 13.346 15 14.72 15C16.094 15 18.3902 15.3396 20.527 16.1771C22.6126 16.9945 24.9037 18.4295 25.697 20.8547C25.781 21.1113 25.781 21.3887 25.697 21.6453C24.9301 23.9898 23.0417 25.451 21.0185 26.3101C18.9915 27.1707 16.6757 27.5 14.72 27.5C12.7643 27.5 10.4485 27.1707 8.42153 26.3101C6.39827 25.451 4.50985 23.9898 3.74294 21.6453C3.65901 21.3887 3.65901 21.1113 3.74294 20.8547C4.53626 18.4295 6.82739 16.9945 8.91298 16.1771Z" fill="white"/>
</svg>
