<svg width="30" height="30" viewBox="0 0 30 30" fill="none" xmlns="http://www.w3.org/2000/svg">
<path fill-rule="evenodd" clip-rule="evenodd" d="M15.28 5C13.9251 5 12.8267 6.11929 12.8267 7.5C12.8267 8.88071 13.9251 10 15.28 10C16.6349 10 17.7333 8.88071 17.7333 7.5C17.7333 6.11929 16.6349 5 15.28 5ZM10.3733 7.5C10.3733 4.73858 12.5701 2.5 15.28 2.5C17.9899 2.5 20.1867 4.73858 20.1867 7.5C20.1867 10.2614 17.9899 12.5 15.28 12.5C12.5701 12.5 10.3733 10.2614 10.3733 7.5Z" fill="#272C2F"/>
<path fill-rule="evenodd" clip-rule="evenodd" d="M6.78686 21.2593C7.32682 22.4616 8.43152 23.3682 9.92512 24.0024C11.5782 24.7043 13.5557 25 15.28 25C17.0042 25 18.9818 24.7043 20.6349 24.0024C22.1285 23.3682 23.2332 22.4615 23.7731 21.2593C23.2161 20.1127 21.9191 19.1817 20.2063 18.5104C18.3565 17.7854 16.3593 17.5 15.28 17.5C14.2006 17.5 12.2035 17.7854 10.3537 18.5104C8.64092 19.1817 7.34392 20.1127 6.78686 21.2593ZM9.47298 16.1771C11.6098 15.3396 13.906 15 15.28 15C16.654 15 18.9502 15.3396 21.087 16.1771C23.1726 16.9945 25.4637 18.4295 26.257 20.8547C26.341 21.1113 26.341 21.3887 26.257 21.6453C25.4901 23.9898 23.6017 25.451 21.5784 26.3101C19.5515 27.1707 17.2357 27.5 15.28 27.5C13.3242 27.5 11.0085 27.1707 8.98153 26.3101C6.95827 25.451 5.06985 23.9898 4.30294 21.6453C4.21901 21.3887 4.21901 21.1113 4.30294 20.8547C5.09626 18.4295 7.38739 16.9945 9.47298 16.1771Z" fill="#272C2F"/>
</svg>
